<svg width="28" height="48" viewBox="0 0 28 48" fill="none" xmlns="http://www.w3.org/2000/svg">
<path d="M27.6512 47.717C27.6038 47.9051 27.4157 47.9992 27.0876 47.9992H20.8131C20.436 47.9992 20.1095 47.8348 19.8265 47.5051L9.46565 34.3252L6.57622 37.0739V47.2956C6.57622 47.766 6.34064 48.0008 5.87106 48.0008H1.00765C0.537279 48.0008 0.30249 47.766 0.30249 47.2956V0.705106C0.30249 0.236316 0.537279 0.00152588 1.00765 0.00152588H5.87185C6.34143 0.00152588 6.57701 0.237106 6.57701 0.705106V29.3922L18.9822 16.8464C19.311 16.5183 19.6399 16.3531 19.9688 16.3531H26.4544C26.7358 16.3531 26.9232 16.4716 27.018 16.7049C27.1129 16.9871 27.0892 17.1982 26.9469 17.3397L13.8358 30.0247L27.5097 47.0118C27.6971 47.2 27.7437 47.4347 27.6512 47.717Z" fill="#20BEFF"/>
</svg>
