<svg width="165" height="80" viewBox="0 0 165 80" fill="none" xmlns="http://www.w3.org/2000/svg">
<path d="M92.7229 34.0406C101.739 -17.0433 166.708 1.72043 139.589 65.2215" stroke="black" stroke-width="2" stroke-miterlimit="10"/>
<path d="M112.655 18.994H49.7578V64.0018H112.655V18.994Z" stroke="black" stroke-width="2" stroke-linejoin="bevel"/>
<path d="M91.7735 49.3693C96.0095 49.3693 99.4435 45.9353 99.4435 41.6993C99.4435 37.4632 96.0095 34.0292 91.7735 34.0292C87.5374 34.0292 84.1034 37.4632 84.1034 41.6993C84.1034 45.9353 87.5374 49.3693 91.7735 49.3693Z" fill="#4285F4" stroke="black" stroke-width="2" stroke-miterlimit="10"/>
<path d="M16.2177 34.8462H67.1291C67.1291 34.8462 66.4559 1.58813 52.1572 1.58813C37.8585 1.58813 36.9781 23.5626 36.9781 23.5626C36.9781 23.5626 13.5306 10.8751 16.2177 34.8462Z" stroke="black" stroke-width="2" stroke-linejoin="bevel"/>
<path d="M134.94 39.835V77.4431L145.383 62.4021L162.323 60.7277L134.94 39.835Z" fill="#FBBC04" stroke="black" stroke-width="2" stroke-miterlimit="10"/>
<path d="M145.717 62.7358L153.14 77.5696" stroke="black" stroke-width="2" stroke-miterlimit="10"/>
<path d="M113.466 78.5882H0.935089C0.935089 78.5882 7.71905 64.3988 30.8674 73.4441C30.8674 73.4441 5.45773 61.1248 6.2115 43.6556C6.2115 43.6556 32.7892 47.7813 40.4651 78.5824" fill="#34A853"/>
<path d="M113.466 78.5882H0.935089C0.935089 78.5882 7.71905 64.3988 30.8674 73.4441C30.8674 73.4441 5.45773 61.1248 6.2115 43.6556C6.2115 43.6556 32.7892 47.7813 40.4651 78.5824" stroke="black" stroke-width="2" stroke-miterlimit="10"/>
</svg>
