<svg width="99" height="78" viewBox="0 0 99 78" fill="none" xmlns="http://www.w3.org/2000/svg">
<path d="M79.3414 25.1594V31.2313" stroke="black" stroke-width="2" stroke-miterlimit="10"/>
<path d="M94.1518 31.3764L64.6399 31.0842L64.5332 42.1407L94.0451 42.4329L94.1518 31.3764Z" stroke="black" stroke-width="2" stroke-miterlimit="10"/>
<path d="M64.5847 47.0231L94.0981 47.316" stroke="black" stroke-width="2" stroke-miterlimit="10" stroke-linecap="square"/>
<path d="M59.5508 35.8291V77H1V35.8291" stroke="black" stroke-width="2" stroke-miterlimit="10"/>
<path d="M59.5508 31.4535H1V36.6229H59.5508V31.4535Z" stroke="black" stroke-width="2" stroke-miterlimit="10"/>
<path d="M17.4409 55.1174C-3.63273 33.7783 20.1422 -13.4219 65.6532 5.29941" stroke="black" stroke-width="2" stroke-linejoin="bevel"/>
<path d="M48.895 77C50.0194 69.3877 58.0672 58.7276 63.0545 60.2491C68.0418 61.7706 63.0545 72.2417 63.0545 72.2417C63.0545 72.2417 75.1192 53.3975 84.2914 58.1558C93.4636 62.9141 81.3942 72.8087 81.3942 72.8087C81.3942 72.8087 94.9099 68.4332 97 76.9953H48.895" fill="#34A853"/>
<path d="M48.895 77C50.0194 69.3877 58.0672 58.7276 63.0545 60.2491C68.0418 61.7706 63.0545 72.2417 63.0545 72.2417C63.0545 72.2417 75.1192 53.3975 84.2914 58.1558C93.4636 62.9141 81.3942 72.8087 81.3942 72.8087C81.3942 72.8087 94.9099 68.4332 97 76.9953H48.895" stroke="black" stroke-width="2" stroke-miterlimit="10"/>
<path d="M41.2345 67.6392C43.2219 67.6392 44.8362 65.3191 44.8362 59.7103V54.7535C44.8362 49.1399 43.2219 46.8246 41.2345 46.8246H19.3164C17.3289 46.8246 15.7147 49.1447 15.7147 54.7535V59.7103C15.7147 65.3238 17.3289 67.6392 19.3164 67.6392H41.2345Z" fill="#FBBC04" stroke="black" stroke-width="2" stroke-miterlimit="10"/>
<path d="M30.2754 58.255C32.3161 58.255 33.9704 56.5795 33.9704 54.5126C33.9704 52.4458 32.3161 50.7703 30.2754 50.7703C28.2348 50.7703 26.5804 52.4458 26.5804 54.5126C26.5804 56.5795 28.2348 58.255 30.2754 58.255Z" fill="#FFBA00" stroke="black" stroke-width="2" stroke-miterlimit="10"/>
<path d="M37.2268 66.9635C37.2268 63.514 34.1149 60.7214 30.2753 60.7214C26.4357 60.7214 23.3239 63.5188 23.3239 66.9635" fill="#FFBA00"/>
<path d="M37.2268 66.9635C37.2268 63.514 34.1149 60.7214 30.2753 60.7214C26.4357 60.7214 23.3239 63.5188 23.3239 66.9635" stroke="black" stroke-width="2" stroke-miterlimit="10"/>
<path d="M91.0749 25.6934C93.2023 25.6934 94.9285 23.2127 94.9285 17.2022V11.8958C94.9285 5.89001 93.2023 3.40454 91.0749 3.40454H67.6079C65.4805 3.40454 63.7543 5.88528 63.7543 11.8958V17.2022C63.7543 23.2079 65.4805 25.6934 67.6079 25.6934H91.0749Z" stroke="black" stroke-width="2" stroke-miterlimit="10"/>
<path d="M79.3415 15.6429C81.5265 15.6429 83.2978 13.8489 83.2978 11.6359C83.2978 9.4229 81.5265 7.62891 79.3415 7.62891C77.1565 7.62891 75.3853 9.4229 75.3853 11.6359C75.3853 13.8489 77.1565 15.6429 79.3415 15.6429Z" fill="#4285F4" stroke="black" stroke-width="2" stroke-miterlimit="10"/>
<path d="M86.7828 24.9704C86.7828 21.28 83.4517 18.2889 79.3415 18.2889C75.2312 18.2889 71.9001 21.28 71.9001 24.9704" fill="#4285F4"/>
<path d="M86.7828 24.9704C86.7828 21.28 83.4517 18.2889 79.3415 18.2889C75.2312 18.2889 71.9001 21.28 71.9001 24.9704" stroke="black" stroke-width="2" stroke-miterlimit="10"/>
</svg>
