<svg width="82" height="77" viewBox="0 0 82 77" fill="none" xmlns="http://www.w3.org/2000/svg">
<path d="M40.0915 68.8875V8.38033C40.0915 4.14405 40.6946 1.45618 44.9719 1.45618H75.7113C79.9887 1.45618 81 4.13946 81 8.38033V68.8921C81 73.1283 79.9887 76 75.7113 76H44.9719C40.6946 76 40.0915 73.1283 40.0915 68.8921V68.8875Z" stroke="black" stroke-width="2" stroke-miterlimit="10"/>
<path d="M59.9195 39.1415C61.2092 8.61912 20.1707 3.30769 16.5985 32.3965" stroke="black" stroke-width="2" stroke-linejoin="bevel"/>
<path d="M16.2831 41.7651V51.2899" stroke="black" stroke-width="2" stroke-miterlimit="10"/>
<path d="M29.644 51.2899H2.92218V60.2128H29.644V51.2899Z" fill="white" stroke="black" stroke-width="2" stroke-miterlimit="10"/>
<path d="M27.0507 44.0349C29.0038 44.0349 30.5904 42.6474 30.5904 39.2841V36.3113C30.5904 32.948 29.0084 31.5604 27.0507 31.5604H5.51548C3.56238 31.5604 1.97577 32.948 1.97577 36.3113V39.2841C1.97577 42.6474 3.55774 44.0349 5.51548 44.0349H27.0507Z" fill="#FBBC04" stroke="black" stroke-width="2" stroke-miterlimit="10"/>
<path d="M51.94 68.4142H69.1561" stroke="black" stroke-width="2" stroke-miterlimit="10"/>
<path d="M61.1813 45.4546C65.5754 45.4546 69.1376 41.9267 69.1376 37.5748C69.1376 33.2229 65.5754 29.6949 61.1813 29.6949C56.7872 29.6949 53.2251 33.2229 53.2251 37.5748C53.2251 41.9267 56.7872 45.4546 61.1813 45.4546Z" fill="#34A853" stroke="black" stroke-width="2" stroke-miterlimit="10"/>
</svg>
