<svg width="148" height="104" fill="none" xmlns="http://www.w3.org/2000/svg"><path d="M21.767 7.012V53.97c0 9.92 7.67 17.965 16.849 17.965H84.58" stroke="#000" stroke-width="2" stroke-miterlimit="10"/><path d="M84.574 48.223H7.184S.041 36.237 9.03 32.133c8.105-3.701 12.33 6.572 12.33 6.572S6.32 10.058 26.826 6.046C38.287 3.804 49.74 15.91 50.96 38.705c1.817-24.53 28.554-16.231 33.614 9.518z" fill="#fff" stroke="#000" stroke-width="2" stroke-miterlimit="10"/><path d="M84.574 80.761c4.492 0 8.133-3.658 8.133-8.171 0-4.514-3.641-8.172-8.133-8.172-4.492 0-8.134 3.658-8.134 8.171 0 4.514 3.642 8.172 8.134 8.172z" fill="#4285F4" stroke="#000" stroke-width="2" stroke-miterlimit="10"/><path d="M55.825 60.184L44.184 71.88l11.641 11.696L67.466 71.88 55.825 60.184z" fill="#FBBC04" stroke="#000" stroke-width="2" stroke-miterlimit="10"/><path d="M24.77 98.155h14.913m69.866-52.181h25.811" stroke="#000" stroke-width="2" stroke-miterlimit="10"/><path d="M92.932 98.155h53.087s-.701-34.844-15.614-34.844c-14.912 0-15.824 23.02-15.824 23.02s-24.45-13.29-21.642 11.817l-.007.007z" fill="#00B649" stroke="#292223" stroke-width="2" stroke-miterlimit="10"/></svg>