<?xml version="1.0" encoding="utf-8"?>
<!-- Generator: Adobe Illustrator 27.4.1, SVG Export Plug-In . SVG Version: 6.00 Build 0)  -->
<svg version="1.1" id="Layer_1" xmlns="http://www.w3.org/2000/svg" xmlns:xlink="http://www.w3.org/1999/xlink" x="0px" y="0px"
	 viewBox="0 0 150 72.8" style="enable-background:new 0 0 150 72.8;" xml:space="preserve">
<style type="text/css">
	.st0{fill:#4285F4;}
	.st1{fill:#00B649;}
	.st2{fill:#292223;}
	.st3{fill:#FBBC04;}
</style>
<g>
	<path d="M84.8,70.7H1V14.5h83.8C84.8,14.5,84.8,70.7,84.8,70.7z M2.4,69.2h80.9V15.9H2.4V69.2z"/>
	<path d="M58.4,52.9c-0.7-16.8,4.4-28.3,8.7-35C72.7,9.3,80.5,3.6,88.6,2.2c12.3-2.1,22.4,5.7,27,21l-1.4,0.4
		c-4.4-14.5-14-22-25.4-20C69.5,7,58.9,31.3,59.8,52.9L58.4,52.9z"/>
	<g>
		<circle class="st0" cx="59.1" cy="55.2" r="8.1"/>
		<path d="M59.1,64c-4.9,0-8.8-3.9-8.8-8.8s3.9-8.8,8.8-8.8c4.9,0,8.8,3.9,8.8,8.8S64,64,59.1,64z M59.1,47.8
			c-4.1,0-7.4,3.3-7.4,7.4s3.3,7.4,7.4,7.4s7.4-3.3,7.4-7.4S63.2,47.8,59.1,47.8z"/>
	</g>
	<rect x="126" y="39.6" width="1.4" height="15"/>
	<g>
		<rect x="105.9" y="54.6" class="st1" width="41.6" height="14"/>
		<path class="st2" d="M148.2,69.3h-43V53.9h43V69.3z M106.6,67.9h40.2V55.3h-40.2V67.9z"/>
	</g>
	<g>
		<path class="st3" d="M143.5,43.2c3,0,5.5-2.2,5.5-7.5v-4.7c0-5.3-2.5-7.5-5.5-7.5H110c-3,0-5.5,2.2-5.5,7.5v4.7
			c0,5.3,2.5,7.5,5.5,7.5C110,43.2,143.5,43.2,143.5,43.2z"/>
		<path d="M143.5,43.9H110c-3.9,0-6.2-3.1-6.2-8.2v-4.7c0-5.1,2.3-8.2,6.2-8.2h33.5c3.9,0,6.2,3.1,6.2,8.2v4.7
			C149.7,40.8,147.4,43.9,143.5,43.9z M110,24.3c-3,0-4.8,2.5-4.8,6.8v4.7c0,4.3,1.7,6.8,4.8,6.8h33.5c3,0,4.8-2.5,4.8-6.8v-4.7
			c0-4.3-1.7-6.8-4.8-6.8H110z"/>
	</g>
	<rect x="9.6" y="31.7" width="15.2" height="1.4"/>
	<rect x="16.8" y="41.3" width="26.8" height="1.4"/>
	<rect x="2.1" y="22.9" width="82" height="1.4"/>
</g>
</svg>
