<svg width="118" height="100" fill="none" xmlns="http://www.w3.org/2000/svg"><g clip-path="url(#clip0_1136_3427)"><path d="M64.864 29.705V10.373L47.99.703l-16.868 9.67v19.332l16.868 9.663 16.874-9.663z" fill="#4285F4" stroke="#000" stroke-width="1.928" stroke-miterlimit="10"/><path d="M64.093 20.035c37.914-7.088 62.19 3.92 37.36 61.63" stroke="#000" stroke-width="1.928" stroke-miterlimit="10"/><path d="M7.234 93.745l.044-18.587c0-21.283 11.746-26.408 33.63-26.408h23.524s-1.115 22.555-27.117 22.555H7.45s-.191 2.239-.191 5.144" fill="#00B649"/><path d="M7.234 93.745l.044-18.587c0-21.283 11.746-26.408 33.63-26.408h23.524s-1.115 22.555-27.117 22.555H7.45s-.191 2.239-.191 5.144" stroke="#292223" stroke-width="1.928" stroke-miterlimit="10"/><path d="M76.79 39.655h-57.6v40.903h57.6V39.655z" stroke="#000" stroke-width="1.928" stroke-linejoin="bevel"/><path d="M101.453 93.88c6.797 0 12.307-5.469 12.307-12.214s-5.51-12.214-12.307-12.214c-6.797 0-12.308 5.469-12.308 12.214s5.51 12.213 12.308 12.213z" fill="#FBBC04" stroke="#000" stroke-width="1.928" stroke-miterlimit="10"/><path d="M94.211 79.017l6.859 7.816 16.449-20.256" stroke="#000" stroke-width="1.928" stroke-linejoin="bevel"/><path d="M.369 93.745h76.42" stroke="#292223" stroke-width="1.928" stroke-miterlimit="10"/></g><defs><clipPath id="clip0_1136_3427"><path fill="#fff" transform="translate(.369)" d="M0 0h117.631v99.311H0z"/></clipPath></defs></svg>